<svg viewBox="0 0 1200 300" xmlns="http://www.w3.org/2000/svg">
  <defs>
    <linearGradient id="bg" x1="0%%" y1="0%%" x2="100%%" y2="100%%">
      <stop offset="0%%" stop-color="#0a0a0f"/>
      <stop offset="50%%" stop-color="#0f0f1a"/>
      <stop offset="100%%" stop-color="#0a0a0f"/>
    </linearGradient>
    <linearGradient id="accent" x1="0%%" y1="0%%" x2="100%%" y2="0%%">
      <stop offset="0%%" stop-color="#6366f1"/>
      <stop offset="50%%" stop-color="#818cf8"/>
      <stop offset="100%%" stop-color="#6366f1"/>
    </linearGradient>
    <pattern id="grid" width="40" height="40" patternUnits="userSpaceOnUse">
      <path d="M 40 0 L 0 0 0 40" fill="none" stroke="#1e1e2e" stroke-width="0.5" opacity="0.4"/>
    </pattern>
  </defs>
  <rect width="1200" height="300" fill="url(#bg)"/>
  <rect width="1200" height="300" fill="url(#grid)"/>
  <rect x="0" y="296" width="1200" height="4" fill="url(#accent)" opacity="0.6"/>
  <path d="M0 0 L60 0 L0 60 Z" fill="#6366f1" opacity="0.06"/>
  <path d="M1200 300 L1140 300 L1200 240 Z" fill="#6366f1" opacity="0.06"/>
  <circle cx="100" cy="80" r="1.5" fill="#6366f1" opacity="0.3"/>
  <circle cx="250" cy="220" r="1" fill="#818cf8" opacity="0.25"/>
  <circle cx="950" cy="60" r="1.5" fill="#818cf8" opacity="0.2"/>
  <circle cx="1100" cy="200" r="1" fill="#6366f1" opacity="0.3"/>
  <text x="600" y="125" text-anchor="middle" font-family="system-ui, -apple-system, sans-serif" font-size="64" font-weight="800" fill="#e2e8f0" letter-spacing="-2">Deiby Ariza</text>
  <text x="600" y="175" text-anchor="middle" font-family="system-ui, -apple-system, sans-serif" font-size="20" font-weight="400" fill="#94a3b8" letter-spacing="6">INGENIERO DE IA  /  ML ENGINEER  /  LIDER TECNICO</text>
  <circle cx="565" cy="210" r="2" fill="#6366f1" opacity="0.5"/>
  <circle cx="600" cy="210" r="2" fill="#818cf8" opacity="0.5"/>
  <circle cx="635" cy="210" r="2" fill="#a78bfa" opacity="0.5"/>
  <text x="600" y="250" text-anchor="middle" font-family="system-ui, -apple-system, sans-serif" font-size="14" font-weight="300" fill="#64748b" letter-spacing="3">BUCARAMANGA, COLOMBIA</text>
</svg>