<svg xmlns="http://www.w3.org/2000/svg" viewBox="0 0 260 60">
  <defs>
    <linearGradient id="body" x1="0%" y1="0%" x2="0%" y2="100%">
      <stop offset="0%" stop-color="#FDE68A"/>
      <stop offset="35%" stop-color="#F59E0B"/>
      <stop offset="100%" stop-color="#B45309"/>
    </linearGradient>
    <linearGradient id="wingL" x1="0%" y1="0%" x2="100%" y2="100%">
      <stop offset="0%" stop-color="#F59E0B"/>
      <stop offset="100%" stop-color="#B45309"/>
    </linearGradient>
    <linearGradient id="wingR" x1="100%" y1="0%" x2="0%" y2="100%">
      <stop offset="0%" stop-color="#F59E0B"/>
      <stop offset="100%" stop-color="#B45309"/>
    </linearGradient>
  </defs>
  <g transform="translate(0,0) scale(0.3)">
    <g fill="#D97706">
      <path d="M 82,175 C 80,188 72,192 65,192 C 82,192 92,185 92,175 Z"/>
      <path d="M 118,175 C 120,188 128,192 135,192 C 118,192 108,185 108,175 Z"/>
    </g>
    <path d="M 45,95 C 5,110 5,155 25,175 C 45,195 55,160 55,130 C 55,110 50,100 45,95 Z" fill="url(#wingL)"/>
    <path d="M 155,95 C 195,110 195,155 175,175 C 155,195 145,160 145,130 C 145,110 150,100 155,95 Z" fill="url(#wingR)"/>
    <path d="M 68,45 C 40,25 32,32 25,50 C 35,62 48,72 58,85 Z" fill="url(#body)"/>
    <path d="M 132,45 C 160,25 168,32 175,50 C 165,62 152,72 142,85 Z" fill="url(#body)"/>
    <path d="M 100,30 C 35,30 20,95 35,150 C 45,188 80,188 100,188 C 120,188 155,188 165,150 C 180,95 165,30 100,30 Z" fill="url(#body)"/>
    <path d="M 100,62 C 60,35 20,55 35,108 C 45,145 85,135 100,118 C 115,135 155,145 165,108 C 180,55 140,35 100,62 Z" fill="#FDFBF7"/>
    <path d="M 94,106 C 100,102 100,102 106,106 C 108,112 100,122 100,122 C 100,122 92,112 94,106 Z" fill="#D97706"/>
    <g transform="translate(66, 92)">
      <circle cx="0" cy="0" r="28" fill="#171717"/>
      <circle cx="0" cy="0" r="26" fill="#FFFFFF"/>
      <circle cx="0" cy="0" r="16" fill="#B45309"/>
      <circle cx="0" cy="0" r="11" fill="#171717"/>
      <circle cx="-5" cy="-6" r="4.5" fill="#FFFFFF"/>
    </g>
    <g transform="translate(134, 92)">
      <circle cx="0" cy="0" r="28" fill="#171717"/>
      <circle cx="0" cy="0" r="26" fill="#FFFFFF"/>
      <circle cx="0" cy="0" r="16" fill="#B45309"/>
      <circle cx="0" cy="0" r="11" fill="#171717"/>
      <circle cx="-5" cy="-6" r="4.5" fill="#FFFFFF"/>
    </g>
  </g>
  <text x="72" y="42" font-family="-apple-system, BlinkMacSystemFont, 'Segoe UI', Helvetica, Arial, sans-serif" font-size="34" font-weight="700" fill="#0A0A0A" letter-spacing="-0.02em">Búho</text>
</svg>
